# xmcd
#
# Track frame offsets:
#	150
#	17062
#	38560
#	49810
#	69512
#	88875
#	107797
#	132417
#	143167
#	161002
#	170607
#	190547
#	209205
#	223185
#
# Disc length: 3471 seconds
# Revision: 3
# Processed by: cddbd v1.5.2PL0 Copyright (c) Steve Scherf et al.
# Submitted via: dBpowerAMP V12.0
#
DISCID=d30d8d0e
DTITLE=Jimmy Rogers - Blue Bird
DYEAR=1994
DGENRE=Blues
TTITLE0=I'm Tired Of Crying Over You
TTITLE1=Blue Bird
TTITLE2=Walkin' By Myself
TTITLE3=Rock Me
TTITLE4=I Lost A Good Woman
TTITLE5=Howlin' for My Darling
TTITLE6=Why Are You So Mean To Me
TTITLE7=Blues Falling
TTITLE8=Lemon Squeezer
TTITLE9=That Ain't It (Baby I Need Your Love)
TTITLE10=Smokestack Lightning
TTITLE11=Blue And Lonesome
TTITLE12=Big Boss Man
TTITLE13=Jam Session: a. Jammin' With Johnnie - b. Saint Louis Blues
EXTD=
EXTT0=
EXTT1=
EXTT2=
EXTT3=
EXTT4=
EXTT5=
EXTT6=
EXTT7=
EXTT8=
EXTT9=
EXTT10=
EXTT11=
EXTT12=
EXTT13=
PLAYORDER=
